<svg width="19" height="19" viewBox="0 0 19 19" fill="black" xmlns="http://www.w3.org/2000/svg">
<path d="M9.49805 0.269773C5.71576 0.269773 2.12409 -0.0666856 0.752215 3.45415C0.185549 4.90831 0.267841 6.79686 0.267841 9.50102C0.267841 11.8739 0.191799 14.1041 0.752215 15.5469C2.12097 19.0698 5.7418 18.7323 9.49596 18.7323C13.1178 18.7323 16.8522 19.1094 18.2408 15.5469C18.8085 14.0781 18.7251 12.2177 18.7251 9.50102C18.7251 5.89477 18.9241 3.56665 17.1751 1.81873C15.4043 0.0478976 13.0095 0.269773 9.49388 0.269773H9.49805ZM8.67096 1.93331C16.5605 1.92081 17.5647 1.04373 17.0105 13.2281C16.8137 17.5375 13.5324 17.0646 9.49909 17.0646C2.14492 17.0646 1.93347 16.8541 1.93347 9.49686C1.93347 2.05415 2.5168 1.93748 8.67096 1.93123V1.93331ZM14.4251 3.46561C13.8137 3.46561 13.3178 3.96144 13.3178 4.5729C13.3178 5.18436 13.8137 5.68019 14.4251 5.68019C15.0366 5.68019 15.5324 5.18436 15.5324 4.5729C15.5324 3.96144 15.0366 3.46561 14.4251 3.46561ZM9.49805 4.7604C6.88034 4.7604 4.75846 6.88332 4.75846 9.50102C4.75846 12.1187 6.88034 14.2406 9.49805 14.2406C12.1158 14.2406 14.2366 12.1187 14.2366 9.50102C14.2366 6.88332 12.1158 4.7604 9.49805 4.7604ZM9.49805 6.42394C13.5658 6.42394 13.571 12.5781 9.49805 12.5781C5.43138 12.5781 5.42513 6.42394 9.49805 6.42394Z" fill="black"/>
</svg>
